<svg xmlns="http://www.w3.org/2000/svg" id="_&#x5E6;&#x5D1;&#x5E2;" data-name="&#x5E6;&#x5D1;&#x5E2;" viewBox="0 0 259.47 155.13"><defs><style>      .cls-1 {        fill: #ccb17a;      }      .cls-2 {        fill: #fffef9;      }      .cls-3 {        fill: #fffdf0;      }      .cls-4 {        fill: #5b2d0d;      }      .cls-5 {        fill: #dbbe8a;      }    </style></defs><path class="cls-4" d="M237.89,67.76c.5-11.52-.5-23.77-7.84-33.25-7.34-9.48-22.88-14.66-33.64-8.31-2.41,1.42-4.58,3.37-7.4,3.89-4.02,.74-7.99-1.73-10.33-4.75-2.34-3.01-7.79-9.03-9.91-12.18-5.32-7.91-17.03-14.64-27.15-12.89-6.06,1.05-13.52,3.67-18.89,7.56-3.88,2.81-9.27,3.35-13.64,1.18-3.48-1.73-7.75-2.19-11.39-.71-5.95,2.42-9.29,8.6-15.42,10.63-10.58,3.5-23.44-7.04-32.82-1.45-7.16,4.27-5.08,11.34-7.07,20.17-1.37,6.12-9.26,4.98-15.54,6.21-4.71,.92-8.71,4.33-9.94,8.5-1.24,4.17,.34,8.91,3.93,11.79C.88,65.85-2.89,87.05,1.83,92.5c5.11,5.91,10.11,3.87,16.02,9.15,4.24,3.79,5.08,9.54,6.44,14.77,1.36,5.22,4.21,10.96,9.96,12.47,6.59,1.72,12.92-2.98,17.77-7.34,2.79-2.51,6.05-5.15,9.59-6.62,.2-.09,.44,.04,.44,.25h0s-.12,2.25-.68,4.19c-.56,1.94-1.25,3.88-1.25,5.92s.9,4.26,2.63,4.96c1.35,.55,2.98,0,3.85-1.27,1.25-1.82,.81-4.41,.32-6.65-.45-2.02-.89-4.04-1.33-6.06-.3-1.37,.96-2.62,2.51-2.47,.55,.05,1.1,.14,1.66,.28,7.75,1.92,6.94,8.37,16.47,13.36,1.52,.79,4.69,1.12,5.32,2.83q.5,1.34,.51,2.84s-.19,3.24-1.09,6.03c-.9,2.79-2.02,5.59-2.02,8.53s1.45,6.13,4.22,7.15c2.17,.8,4.79,0,6.18-1.83,2.01-2.63,1.31-6.35,.52-9.56-1.09-4.45-6.06-9.53-3.27-13.34,2.99-4.08,8.12-2.84,15.09-7.13,7.54-4.64,15.28-11.22,24.23-9.54,8.16,1.54,13.09,8.9,20.2,12.82,8.37,4.62,19.81,3.21,27.35-2.24,3.32-2.41,8.21-1.81,10.79,1.24,3.34,3.96,8.02,7.03,13.3,8.54,8.64,2.47,18.64,.69,25.56-4.55,4.08-3.09,7.17-7.52,7.23-12.3,.06-4.78-3.51-9.7-8.74-10.67,8.22-4.6,16.37-10.55,19.02-18.89,2.64-8.35-3.04-19.12-12.72-19.61"></path><path class="cls-4" d="M134.69,122.67c-.45-1.36-.5-3.92-2.17-4.05-2.58-.21-3.14,3.56-3.95,6.03-.75,2.27-1.08,4.85,.1,6.77,1.18,1.92,3.96,2.78,5.92,1.41,1.57-1.09,2.2-3.22,2.01-5.07s-1.36-3.4-1.92-5.1"></path><path class="cls-4" d="M248.13,64.39c-3.18-.49-4.82-.06-5.15-1.18-.65-2.15,3.18-3.19,5.32-4.31,2.15-1.12,4.97-1.7,7.47-1.01,2.5,.69,4.34,2.9,3.49,4.78-.68,1.5-2.81,2.38-4.91,2.51-2.1,.13-4.16-.48-6.22-.8"></path><path class="cls-4" d="M48.15,137.39c.53-2.44,.29-3.72,1.16-3.93,1.69-.4,2.31,2.61,3.07,4.33,.76,1.72,1.07,3.93,.42,5.83-.65,1.9-2.45,3.22-3.87,2.47-1.13-.6-1.7-2.29-1.71-3.92,0-1.63,.58-3.2,.92-4.78"></path><path class="cls-4" d="M242.71,108.9c-.64-.71-2.07-1.56-1.58-2.53,.77-1.53,3.2-.35,4.77-.08,1.57,.27,3.13,1.06,3.83,2.35,.7,1.29,.25,3.07-1.19,3.66-1.15,.47-2.58,.09-3.57-.64-.99-.73-1.48-1.89-2.26-2.76"></path><path class="cls-4" d="M9.64,61.79c.94-.15,2.59,.09,2.82-.97,.37-1.67-2.26-2.29-3.65-3.07-1.39-.78-3.1-1.15-4.45-.59-1.35,.56-2.13,2.22-1.38,3.59,.59,1.09,1.94,1.7,3.17,1.76,1.23,.06,2.34-.53,3.49-.71"></path><path class="cls-1" d="M94.09,94.59c.25,.66,.57,1.27,.95,1.81,.95,1.35,2.27,2.43,3.75,3.14,4.75,2.3,11.02,.94,15.6-1.13,3.21-1.45,6.05-3.58,9.11-5.3,5.26-2.95,10.91-5.71,17.1-5.74,4.4-.02,8.73,1.36,12.53,3.53,2.16,1.24,6,4.4,6,4.4,0,0,.54-3.85-6.36-7.72-2.5-1.4-5.23-2.39-8.06-2.85-.12-.02-.23-.04-.35-.05-6.74-1.01-13.53,.34-19.54,3.46-2.88,1.5-5.71,3.09-8.61,4.57-2.32,1.19-4.71,2.33-7.25,2.94-3.62,.88-8.29,.25-10.19-3.41-1.73-3.34,1.79-5.76,4.49-6.86,0,0-3.2-3.47-7.73,1.19-2.07,2.12-2.47,5.31-1.46,8.01"></path><path class="cls-5" d="M229.42,69.51c-3.34,1.91-7.12,3.63-10.59,1.03-.2-.15-.4-.31-.6-.46,1.71-2.71,3.24-5.61,3.33-8.83,.07-2.53-.87-4.92-3.28-6.01,.6,1.89-1.88,7.25-2.29,8.02-.6,1.15-1.23,2.27-1.89,3.38-.83-.7-1.66-1.39-2.52-2.06-2.96-2.28-7.31-3.35-10.97-2.58-1.18,.25-2.33,.69-3.35,1.33-.3,.19-.94,.61-1.29,.89,3.23-.51,7.66-.36,10.96,1.44,1.89,1.03,3.51,2.5,4.98,4.06,.06,.06,.12,.13,.18,.19-1.87,2.91-3.86,5.77-5.79,8.65l-1.5,2.27c-2.5,3.82-4.79,7.76-6.54,11.99-.05-.03-.12-.05-.25,0-.75,.32-1.51,.76-2.16,1.08-1.37,.67-2.84,1.08-4.35,1.3-1.79,.26-3.79,.42-5.27-.84-1.33-1.13-1.89-2.96-1.82-4.66,.06-1.71,.58-3.31,1.38-4.76,1.27,1.42,3.59,3.03,7.4,2.54,3.89-.49,8.05-2.72,9.61-6.51,.74-1.8,.65-3.91-.7-5.4-2.9-3.2-8.41-3.1-12.12-1.62-1.65,.66-3.18,1.63-4.47,2.85-1.8,1.7-3.15,3.83-4.18,6.07-.13,.28-.25,.59-.37,.89-2.14,2.59-4.56,5.09-5.69,4.68-1.88-.68,.36-5.82,2.82-11,2.94-5.29,6.09-10.39,9.74-15.26,1.2-1.6,2.42-3.17,3.66-4.73l1.38-1.72c1.03-1.27,2.08-2.52,3.16-3.74,1.47-1.67,3-3.32,4.72-4.74,1.01-.83,2.53-2.12,3.95-1.85,1.31,.24,1.51,1.79,1.1,2.84-1,2.58,1.7,1.68,1.84-.93,.14-2.6-1.21-5-4.03-5.03-2.62-.02-5.04,1.6-7.08,3.08-.06,.04-.11,.08-.17,.13-3.47,2.54-6.4,5.87-9.09,9.25l-1.47,1.86s-.07,.09-.1,.13c-1.56,2.01-3.08,4.04-4.55,6.11l-1.39,2.01c-1.24,1.83-2.43,3.7-3.57,5.6-.13,.09-.22,.15-.23,.16-.79,1.05-1.62,2.08-2.36,3.17-1.51,2.22-3.03,4.4-4.66,6.54-1.14,1.51-3.78,4.29-5.05,1.28-.58-1.37-.23-3.01,.21-4.36,.84-2.57,2.34-5.33,4.47-7.05,1.61-1.29,3.4-1.54,5.35-.98,.75,.22,1.02-.79,1.12-1.33,.22-1.24,.38-3.37-1.04-3.94-1.24-.49-2.75-.03-3.99,.22-3.22,.67-5.95,2.29-7.95,4.91-1.47,1.93-2.53,4.2-3.02,6.56-.51,.33-1.01,.68-1.46,.97-1.28,.83-2.69,1.41-4.17,1.81-1.75,.47-3.71,.87-5.33-.2-1.45-.96-2.23-2.71-2.37-4.41-.14-1.7,.18-3.35,.81-4.89,1.43,1.26,3.92,2.58,7.65,1.65,3.8-.95,7.67-3.67,8.77-7.61,.53-1.88,.19-3.96-1.34-5.28-3.26-2.83-8.72-2.07-12.22-.16-1.56,.85-2.96,1.99-4.1,3.36-1.59,1.9-2.67,4.18-3.42,6.53-.36,1.1-.67,2.31-.87,3.54l-.09,1.81c-.3,.36-.6,.73-.92,1.08-.86,.92-3,3.5-4.46,2.46-1.13-.8-.98-2.99-.94-4.18,.07-1.77,.42-3.52,.73-5.25,1.24-6.9,2.77-13.65,5.02-20.31,.64-1.89,1.31-3.77,2.01-5.63,4.2-1.3,8.15-3.89,10.62-7.44,1.46-2.1,2.25-4.73,1.57-7.25-.68-2.51-2.7-4.38-5.39-3.52-2.49,.8-4.29,3.09-5.77,5.13-.04,.06-.08,.11-.12,.17-2.51,3.49-4.25,7.57-5.76,11.62-.9-.04-1.8-.15-2.69-.35-3.3-.74-6.52-1.86-9.8-2.69-3.38-.85-6.79-1.61-10.22-2.19-5.04-.85-10.16-1.1-15.17,.18-6.02,1.53-11.49,5.56-15.44,10.29-.58,.69-1.12,1.4-1.62,2.15-.66,.98-1.25,2.01-1.73,3.1-.34,.77-.69,1.6-.9,2.44-.07,.26-.48,1.53-.21,1.74,.41,.3,1.59-1.63,1.73-1.84,1.61-2.34,3.41-4.6,5.48-6.55,1.14-1.07,2.36-2.05,3.67-2.9,5.37-3.46,11.64-4.75,17.96-4.63,3.59,.07,7.17,.32,10.72,.82,5.86,.81,11.48,2.86,17.41,2.67-.02,.05-.04,.1-.06,.15-.85,2.39-1.67,4.8-2.41,7.22-1.25,1.69-3.1,4.11-5.43,6.94-.66,.79-1.4,1.53-2.21,2.16-.58-4.13-2.47-8.2-6.91-8.74-3.9-.48-8.54,2.29-8.22,6.63,.06,.87,.29,1.65,.64,2.34-1.85,3.13-2.55,6.62-1.84,10.43,.05,.29,.12,.58,.19,.87-.12,.58-.25,1.16-.41,1.75-.59,2.16-2.2,5.79-4.98,5.68-2.37-.09-4.22-3.02-5.13-4.96-.98-2.08-1.36-4.42-1.62-6.68-.29-2.5-.4-5.06-.02-7.55,.19-1.23,.51-2.43,1.01-3.57,.38-.87,.81-1.89,1.67-2.4,.91-.54,1.96-.19,2.58,.62,1.31,1.7,.38,4.06-.54,5.71-.32,.58-.77,1.08-1.15,1.61-.19,.27-.83,1.08-.46,1.4,.28,.24,.83-.3,1.02-.47,2.12-1.9,3.87-4.26,3.55-7.25-.18-1.73-.9-3.54-2.33-4.61-2-1.51-4.74-.84-6.53,.69-1.68,1.44-2.73,3.5-3.42,5.57-.54,1.63-.87,3.3-1,4.96-.86,2.12-1.94,4.13-3.26,6.04-2.2-3.9-5.84-7.14-10.59-6.35-2.71,.45-4.55,2.59-4.44,5.38,.06,1.53,.88,3.16,2,4.46-.2,.97-.29,1.93-.31,2.71-.07,2.83,.73,5.76,1.92,8.12,.24,.47,.51,.93,.81,1.36,.05,1.78,.07,3.56,.11,5.34,.05,2.15,.21,4.46-.73,6.47-.77,1.64-1.77-.66-2.06-1.4-.53-1.37-.92-2.82-1.23-4.26-.65-3.03-.96-6.13-1.85-9.1-.84-2.81-2.72-7.92-6.55-7.01-3.32,.79-3.51,8.41-3.07,14.81-.24-.52-.48-1.04-.71-1.56-2.07-4.64-4.06-9.33-6.07-14,1.23-2.37,1.9-5.13,1.9-5.13,5.67-20.03-5.41-18.38-5.41-18.38-1.36,.25-2.65,.83-3.62,1.84-2.38,2.5-2.25,6.53-1.82,9.7,.36,2.62,1.02,5.19,1.85,7.7,1.17,3.54,2.52,7.04,3.93,10.51,.05,.95,.08,1.89,.11,2.84,.1,4.39,.26,8.91-.97,13.17-1.04,3.59-4.11,7.08-7.93,4.29-3.53-2.58-5.36-7.28-6.78-11.26-1.6-4.51-2.49-9.24-2.23-14.03,.1-1.77,.28-6.46,2.96-6.28,.07,0,.15,.02,.22,.03,1.33,.23,1.61,1.98,1.65,3.06,.07,1.95-.5,3.8-.92,5.68-.28,1.25,.16,1.48,1.21,.61,2.42-2,3.27-7.06,1.82-9.84-1.92-3.69-5.28-4.11-8.21-2.56-5.1,2.68-5.73,10.71-5.09,15.75,.32,2.56,1.08,5.04,1.96,7.46,2.37,6.47,5.61,14.48,13.02,16.35,2.5,.63,5.52,.53,7.41-1.45,1.17-1.22,1.84-2.87,2.27-4.47,1.41-5.18,.84-10.79,.2-16.04,0,0-.11-.92-.27-2.21,1.1,2.71,2.23,5.42,3.32,8.12,1.04,2.59,2.01,5.22,3.23,7.73,.42,.86,.86,1.7,1.34,2.53,.6,1.03,1.37,1.47,2.57,1.2,1.03-.24,3.09-1.24,2.94-2.55-.12-1.02-.99-2.67-1.43-3.58-.45-.93-.76-1.88-.91-2.9-.3-2.1-.02-4.23,.13-6.32,.03-.38,.05-.77,.07-1.15,.05-1.22,.14-2.44,.31-3.65,.2-1.4,.87-3.87,1.96-1.36,.57,1.32,.96,2.72,1.34,4.1,.77,2.73,1.3,5.52,2.03,8.26,.54,2.02,1.23,4.03,2.29,5.84,.8,1.37,1.97,2.97,3.66,3.21,3.13,.45,3.29-4.27,3.37-6.3,.11-2.91-.13-5.84-.47-8.74,1.04,1.1,2.36,1.92,3.93,2.22,1.95,.39,4.08,.04,5.75-1.06,4.58-3.02,3.05-10.08,1.62-14.39-.23-.7-.51-1.41-.84-2.11,.5-.82,.94-1.68,1.33-2.53,.38-.84,.78-1.71,1.16-2.6,.08,3.76,1.08,7.5,2.73,10.94,1.08,2.25,2.46,4.61,4.68,5.9,2.21,1.29,5.04,1.12,7.09-.42,1.8-1.36,2.66-3.71,3.25-5.79,.19-.66,.39-1.34,.52-2.03,.46,1.2,1.13,2.3,2.09,3.16,.66,.58,1.43,1.04,2.26,1.35,2.46,.89,5.29,.3,7.26-1.4,3.05-2.62,3.9-7.34,4.23-11.13,.08-.93,.1-1.95,.05-3,2.31-1.86,4.14-4.51,5.65-6.86,.38-.6,.75-1.2,1.11-1.81-.99,3.42-1.83,6.88-2.46,10.39-.62,3.44-1.06,6.94-.84,10.44,.12,1.76,.26,3.69,1.2,5.24,1.37,2.27,4.1,2.09,6.1,.82,1.33-.84,2.47-1.93,3.51-3.13,.29,1.35,.89,2.6,1.96,3.64,2.01,1.95,5.09,2.54,7.8,2.24,3.07-.33,6-1.77,8.02-4.07-.13,1.27-.1,2.55,.15,3.82,.12,.57,.12,1.17,.55,2.27,.52,1.34,1.1,2.73,2.49,3.24,1.48,.54,3.21-.03,4.38-.98,1.11-.9,1.88-2.1,2.69-3.26,.77-1.1,1.53-2.2,2.29-3.31,.78-1.13,1.57-2.25,2.35-3.38h0c-.63,1-3.02,5.01-3.49,9.93-.54,5.69,3.27,5.92,3.27,5.92,2.47,.18,4.47-2.8,5.67-4.55,.49-.71,.9-1.33,1.29-1.91-.16,.44-.32,.89-.45,1.35l-.53,3.12c-.07,1.82,.33,3.6,1.54,5.1,1.77,2.18,4.75,3.13,7.48,3.16,3.35,.03,6.74-1.18,9.06-3.59,.09-.1,.16-.19,.23-.29-.06,.16-.14,.31-.2,.48-1.14,3.03-2.31,7.05-.38,10.03,2.14,3.31,6.46,2.31,9.17,.35,2.24-1.63,4.34-3.48,6.11-5.62,.24-.3,.48-.6,.72-.9l.26-3.15c-1.89,2.54-4.03,4.92-6.48,6.76-1.49,1.13-5.6,3.52-6.55,.55-.64-2.02,.62-4.54,1.54-6.28,2.07-3.95,4.67-7.71,7-11.51,2.15-3.51,4.35-7,6.6-10.45,.44,.43,.92,.81,1.46,1.12,2.01,1.14,4.56,1.09,6.71,.39,4.85-1.59,6.78-6.75,6.78-6.75-.38,.25-.78,.48-1.18,.71m-40.51,11.59c2.15-1.96,5-2.85,7.81-3.4,1.06-.21,2.38-.43,3.41,.05,1.43,.67,.28,2.36-.39,3.16-2.4,2.9-6.5,4.15-10.17,3.72-1.06-.12-2.1-.38-3.11-.75,.7-1.02,1.54-1.96,2.45-2.79m-39.71-16.37c1.9-2.2,4.63-3.43,7.34-4.3,1.03-.33,2.32-.71,3.39-.36,1.5,.5,.56,2.31,0,3.19-2.04,3.17-5.96,4.89-9.66,4.91-1.07,0-2.13-.13-3.17-.37,.57-1.1,1.29-2.12,2.1-3.06m-4.19-30.44c.88-2.04,1.82-4.09,3.01-5.98,.69-1.1,1.74-2.8,3.18-2.99,1.31-.18,1.99,1.23,1.93,2.35-.14,2.77-1.87,5.74-3.86,7.6-1.73,1.62-3.83,2.83-6.09,3.56,.58-1.53,1.19-3.04,1.84-4.54m-90.84,31.28c-.94-2.15-1.75-4.39-2.21-6.7-.53-2.65-.74-6.34,1.87-8.02,1.73-1.11,3.01,.45,3.59,1.94,.88,2.25,.84,4.85,.69,7.21-.29,4.47-1.24,7.61-2.16,9.66-.59-1.37-1.18-2.74-1.78-4.1m25.39-.4c-1.06,.37-1.82,1.26-2.35,2.34-.55-.93-.85-2-.71-3.1,.38-3.09,4.2-3.53,6.51-2.45,2.42,1.13,4.25,3.38,5.52,5.72-.13,.18-.27,.35-.41,.53-.89,1.12-1.87,2.16-3.31,2.52-.72,.18-1.46,.22-2.2,.15,.13-.5,.28-.99,.45-1.48,.46-1.33,.96-2.55-.35-3.54-.86-.65-2.11-1.04-3.16-.68m11.38,10.43c.19,1.98,.1,4.51-1.67,5.79-2.62,1.91-5.37-.48-6.41-2.91-.79-1.87-.91-3.8-.64-5.72,1.75,.06,3.49-.45,4.94-1.54,.79-.6,1.48-1.32,2.08-2.1,.9,2.04,1.48,4.27,1.69,6.48m33.73-13.7c-.05,1.22-.16,2.45-.38,3.66-.46,2.53-1.46,5.79-4.26,6.47,0,0-4.52,1.1-4.99-5.39-.15-2.03,.18-3.63,.7-4.87,2.5,1.1,5.62,1.18,8.01,.27,.32-.12,.63-.27,.94-.42v.28m-6.87-1.21c-.42-.1-.85-.23-1.27-.4,1.11-1.61,2.4-2.22,2.4-2.22,.78-.37-.09-1.53-.39-1.94-.14-.19-.3-.39-.47-.58-.46-.51-1.03-.95-1.72-1.01-.98-.08-1.8,.77-2.38,1.45-.28,.33-.54,.66-.79,.99-.09-.4-.11-.84-.03-1.3,.35-2.13,2.07-4.05,4.22-4.45,2.22-.4,4.49,.8,5.83,2.53,1.3,1.68,1.54,3.74,1.53,5.8-2.11,1.14-4.55,1.65-6.93,1.11"></path><path class="cls-3" d="M131,25.36c-.05,.36-.39,.61-.74,.55-.36-.05-.61-.39-.55-.75,.05-.36,.39-.61,.74-.55,.36,.05,.61,.39,.55,.75"></path><path class="cls-3" d="M138.58,28.48c-.05,.36-.38,.61-.74,.55-.36-.05-.61-.39-.55-.74,.05-.36,.39-.61,.75-.55,.36,.05,.61,.39,.55,.74"></path><path class="cls-3" d="M121.61,23.18c-.05,.36-.39,.61-.74,.55-.36-.05-.61-.39-.55-.75s.39-.61,.74-.55c.36,.05,.61,.39,.55,.74"></path><path class="cls-3" d="M112.76,30.91c-.05,.36-.39,.61-.75,.55-.36-.05-.61-.39-.55-.74,.05-.36,.39-.61,.75-.55,.36,.05,.61,.39,.55,.74"></path><path class="cls-3" d="M114.45,31.16c-.05,.36-.39,.61-.75,.55-.36-.05-.61-.38-.55-.74,.05-.36,.39-.61,.75-.55,.36,.05,.61,.39,.55,.75"></path><path class="cls-3" d="M113.4,32.46c-.05,.36-.39,.61-.75,.55-.36-.05-.61-.39-.55-.75,.05-.36,.39-.61,.75-.55,.36,.05,.61,.39,.55,.75"></path><path class="cls-2" d="M78.38,68.26c-.79,3.89-.64,7.86,.82,11.57-2.47-3.22-2.66-8-.82-11.57"></path><path class="cls-2" d="M101.48,48.93c-3.55,.68-5.49,4.14-7.02,7.09,.58-3.35,3.12-7.53,7.02-7.09"></path><path class="cls-2" d="M133.73,55.2c-.75,5.46-4.4,17.8,.27,22.03-5.72-3.01-1.7-17.29-.27-22.03"></path><path class="cls-2" d="M95.63,92.86c.85,3.41,3.53,5.33,6.72,6.34-3.52,.05-6.96-2.58-6.72-6.34"></path><path class="cls-2" d="M133.78,86.1c4.32-1.81,9.78-1.65,13.88,.66-4.52-1.28-9.25-1.42-13.88-.66"></path><path class="cls-2" d="M149.53,23.46c-4.9,4.1-8.07,9.77-10.37,15.64,1.18-6.09,4.84-12.53,10.37-15.64"></path><path class="cls-2" d="M88.02,42.31c4.78-5.3,12.56-8.52,19.7-7.28-7.24-.08-14.09,2.79-19.7,7.28"></path><path class="cls-2" d="M115.89,56.25c-2.36,2.25-3.76,5.15-4.73,8.22-.08-3.28,1.66-6.81,4.73-8.22"></path><path class="cls-2" d="M34.38,64.59c-3.19,2.74-3.51,7.43-3.69,11.36-.86-3.87-.29-9.4,3.69-11.36"></path><path class="cls-2" d="M51.37,50.89c-3.19,2.06-2.31,7.35-2.04,10.59-1.16-3.04-2.06-9.24,2.04-10.59"></path><path class="cls-2" d="M68.26,73.63c2.99,1.06,4.25,4.75,4.16,7.67-.92-2.74-1.86-5.75-4.16-7.67"></path><path class="cls-2" d="M37.15,96.53c2.82,2.94,6.34,5.2,10.52,5.22-4.19,1.11-8.54-1.59-10.52-5.22"></path><path class="cls-2" d="M57.02,83.12c2.15,3.59,3.91,7.64,5.05,11.67-2.16-3.59-3.91-7.64-5.05-11.67"></path><path class="cls-2" d="M96.96,73.52c1.64,2.56,3.76,4.83,6.7,5.83-3.29,.03-5.98-2.74-6.7-5.83"></path><path class="cls-2" d="M178.83,68.34c-2.42,4.96-9.73,15.55-6.61,21.02-4.5-4.64,3.78-16.96,6.61-21.02"></path><path class="cls-2" d="M203.73,43.1c-5.94,2.37-10.71,6.77-14.72,11.63,3.02-5.42,8.5-10.39,14.72-11.63"></path><path class="cls-2" d="M168.91,65.87c-4.4,2.12-7.33,5.84-8.66,10.47,.19-4.9,3.82-9.42,8.66-10.47"></path><path class="cls-2" d="M144.06,66.13c1.42-5.97,7.09-10.11,13.28-9.19-6.13,.29-10.78,3.71-13.28,9.19"></path><path class="cls-2" d="M183.64,81.88c2.12-5.76,8.25-9.2,14.28-7.54-6.12-.45-11.14,2.4-14.28,7.54"></path><path class="cls-2" d="M203.17,85.69c-2.08,4.51-7.28,12.64-4.8,17.69-3.63-4.79,2.02-13.75,4.8-17.69"></path><path class="cls-2" d="M201.35,62.84c3.19-.76,7.3-.04,9.27,2.82-2.64-2.02-6.03-2.53-9.27-2.82"></path><path class="cls-2" d="M216.74,73.31c3.07,1.49,6.36,1.64,9.14-.49-2.14,3.1-6.53,3.02-9.14,.49"></path><path class="cls-3" d="M89.37,107.65c-.07,.08-.17,.08-.29-.03l-.26-.22c-.11-.1-.13-.18-.06-.27l.97-1.15c.06-.07,.14-.06,.25,.02l.29,.25c.11,.09,.12,.17,.05,.26l-.96,1.13Zm1.38,1.16c-.08,.09-.15,.1-.24,.03l-.33-.28c-.1-.08-.11-.16-.04-.24l1.28-1.52c.15-.17,.21-.35,.18-.53-.02-.17-.12-.33-.3-.48-.19-.17-.43-.29-.71-.37-.04-.02-.08-.03-.11-.05-.04-.04-.06-.09-.05-.16l.03-.25s0-.08,.03-.1c.03-.04,.09-.05,.18-.03,.35,.06,.72,.27,1.13,.61,.31,.26,.5,.55,.56,.86,.07,.34-.03,.66-.28,.96l-1.31,1.56Z"></path><path class="cls-3" d="M95.37,108.97c-.06,.16-.15,.33-.26,.5-.22,.35-.49,.61-.81,.79-.37,.2-.72,.24-1.05,.11h0c-.39-.16-.64-.46-.73-.89-.07-.35-.04-.73,.08-1.14l.36-1.09c-.02-.08-.05-.14-.08-.21-.02-.05-.02-.09,0-.14,.03-.08,.11-.12,.24-.12,.39,0,.83,.09,1.32,.28l.12,.05c.9,.36,1.17,.98,.81,1.87m-.75-.3c.21-.53,.1-.88-.34-1.05-.27-.11-.46-.16-.57-.16l-.35,1.1c-.08,.24-.12,.47-.14,.68-.02,.32,.06,.52,.24,.59,.16,.06,.35-.02,.58-.26,.15-.16,.29-.35,.41-.56,.07-.12,.12-.23,.16-.33"></path><path class="cls-3" d="M98.76,109.69c-.07,.47-.27,.86-.58,1.17-.35,.33-.76,.47-1.23,.39-.43-.06-.75-.2-.96-.41-.07-.06-.09-.12-.09-.17,0-.03,.02-.06,.05-.1l.14-.18c.04-.05,.09-.08,.13-.07,.04,0,.07,.02,.1,.05,.15,.15,.36,.25,.61,.29,.22,.04,.44-.04,.64-.24,.22-.21,.37-.5,.42-.88,.11-.72-.1-1.12-.62-1.2-.1-.02-.23-.02-.36,0l-.08,.55c-.03,.21,.02,.32,.15,.34,.02,0,.05,0,.07,0,.04,0,.07-.01,.08-.01h.01s.06,.04,.07,.09l.07,.29s0,.06,0,.08c0,.05-.05,.09-.14,.11-.17,.04-.33,.05-.47,.03-.24-.04-.42-.15-.54-.33-.12-.17-.16-.38-.12-.62l.08-.56-.11-.22s-.03-.08-.02-.12c0-.06,.06-.11,.15-.14,.17-.05,.39-.08,.67-.09,.23,0,.43,0,.61,.03,.51,.08,.87,.29,1.08,.64,.2,.32,.26,.75,.18,1.27"></path><path class="cls-3" d="M100.23,111.32c0,.11-.09,.16-.25,.16h-.34c-.14-.02-.21-.08-.21-.19l.11-3c0-.1,.07-.14,.21-.13l.39,.02c.13,0,.2,.06,.2,.17l-.11,2.97Z"></path><path class="cls-3" d="M103.77,109.09c.02,.18,.02,.39-.01,.61-.05,.42-.17,.78-.36,1.09-.23,.38-.51,.59-.84,.63-.07,0-.15,0-.23,0-.09,0-.15-.06-.15-.14,0-.02,0-.04,0-.07v-.2c.02-.08,.05-.13,.11-.13,0,0,.02,0,.03,0h.03c.18-.02,.33-.18,.44-.46,.09-.2,.14-.44,.16-.71,.02-.2,.02-.36,0-.48-.04-.46-.33-.66-.84-.61h-.02c-.31,.03-.58,.11-.82,.24-.05,.03-.09,.04-.12,.05-.04,0-.09,0-.12-.04l-.22-.22s-.04-.04-.05-.07c0-.12,.19-.25,.62-.39,.25-.08,.51-.13,.76-.16h.09c.94-.11,1.45,.26,1.53,1.07m-1.66,3.07c.01,.12-.05,.19-.2,.2l-.36,.04c-.13,.01-.21-.04-.22-.16l-.24-2.35c-.01-.1,.05-.16,.19-.18l.38-.04c.12-.01,.19,.03,.2,.13l.24,2.35Z"></path><path class="cls-3" d="M107.39,110.16c.03,.11,0,.18-.12,.21l-.42,.11c-.12,.03-.2,0-.22-.1l-.53-1.92c-.06-.22-.17-.37-.34-.44-.15-.08-.34-.08-.56-.02-.25,.07-.48,.2-.71,.38-.04,.03-.07,.05-.1,.06-.05,.01-.11,0-.16-.05l-.19-.17s-.06-.05-.06-.08c-.01-.05,.01-.1,.07-.17,.24-.25,.62-.45,1.14-.59,.39-.11,.73-.1,1.03,.03,.32,.14,.53,.4,.63,.78l.54,1.97Zm-1.74,.48c.03,.11-.03,.18-.18,.22l-.33,.09c-.14,.04-.23,0-.26-.1l-.4-1.45c-.02-.09,.03-.15,.16-.19l.37-.11c.13-.04,.21,0,.24,.11l.39,1.43Z"></path><path class="cls-3" d="M110.69,108.06c.11,.34,.09,.65-.05,.93-.15,.26-.39,.45-.74,.57h-.03c-.11,.05-.23,.07-.35,.07-.1,0-.16-.02-.18-.06,0-.01,0-.03,0-.04v-.25c-.01-.08,.02-.13,.09-.16,.02,0,.05-.01,.1-.02,.06,0,.11-.01,.17-.03,.15-.05,.24-.15,.28-.29,.03-.12,.02-.26-.03-.41-.01-.04-.02-.07-.03-.09l-.46-1.07c-.13-.29-.32-.39-.58-.31-.14,.05-.26,.13-.36,.25l.41,2.62c.01,.08-.03,.13-.13,.17-.01,0-.03,0-.05,.01l-.36,.08c-.12,.04-.19,.01-.22-.07,0,0,0-.02,0-.03l-.34-2.2c0-.06-.02-.12-.03-.16-.05-.14-.16-.22-.35-.24-.09,0-.15-.04-.17-.1,0-.02,0-.05,0-.08l.02-.27c0-.07,.03-.12,.08-.14,.03,0,.07,0,.15,0,.16,0,.34,.03,.52,.08,.22-.26,.49-.44,.81-.55,.31-.1,.58-.09,.82,.04,.23,.12,.41,.33,.55,.64l.44,.98c.02,.05,.04,.1,.05,.14"></path><path class="cls-3" d="M114.55,104.79c.03,.09-.15,.21-.55,.37l.91,2.45c.03,.07-.02,.13-.14,.17l-.43,.16c-.09,.04-.16,.01-.18-.06l-.9-2.44c-.66,.24-1.09,.38-1.3,.42-.1,.02-.16,0-.18-.04,0,0,0-.02,0-.02l-.05-.35c0-.08,.03-.13,.13-.17h.02c.32-.07,.76-.2,1.33-.42,.42-.15,.75-.29,.99-.43,.02,0,.04-.02,.05-.02,.06-.02,.12,0,.15,.05l.18,.33Z"></path><path class="cls-3" d="M117.38,103.66s.02,.07,.04,.12l.32,1.41c.21,.91-.15,1.56-1.07,1.95-.09,.04-.15,.02-.19-.06l-.15-.23s-.02-.03-.02-.04c-.03-.09,0-.16,.09-.2,.23-.11,.4-.25,.51-.42,.12-.19,.16-.4,.1-.64l-.34-1.38s-.04-.05-.09-.04l-1.37,.54c-.07,.03-.12,0-.16-.09l-.48-.96s-.02-.04-.02-.05c-.03-.07,0-.12,.08-.16l.4-.22s.03-.01,.04-.02c.1-.04,.16-.02,.2,.05l.29,.61s.05,.05,.1,.03l1.14-.44c.29-.12,.49-.04,.59,.23"></path><path class="cls-3" d="M119.7,105.67c.04,.1-.01,.18-.16,.24l-.31,.13c-.14,.06-.22,.03-.27-.07l-1.13-2.78c-.04-.09,0-.16,.13-.21l.36-.15c.13-.05,.21-.03,.26,.08l1.12,2.76Z"></path><path class="cls-3" d="M122.14,102.45c.07,.17,.12,.37,.17,.59,.07,.41,.07,.8-.02,1.15-.1,.43-.31,.72-.62,.85-.07,.03-.14,.05-.22,.06-.09,.02-.15-.01-.19-.09,0-.02-.01-.04-.02-.07l-.04-.2c-.01-.09,0-.13,.04-.16,.01,0,.02,0,.03-.01h.03c.17-.08,.26-.28,.29-.58,.02-.22,0-.46-.06-.72-.04-.2-.09-.36-.14-.46-.18-.42-.51-.53-.98-.33h-.02c-.28,.13-.52,.29-.71,.48-.04,.04-.07,.07-.1,.08-.04,.02-.08,.02-.12,0l-.27-.14s-.06-.03-.07-.05c-.04-.11,.11-.29,.47-.55,.22-.15,.44-.28,.67-.38l.08-.04c.87-.37,1.46-.18,1.79,.58m-.67,3.43c.05,.11,0,.2-.12,.25l-.33,.14c-.13,.05-.21,.02-.26-.09l-.93-2.17c-.04-.1,0-.17,.12-.22l.35-.15c.12-.05,.2-.03,.24,.06l.93,2.17Z"></path><path class="cls-3" d="M124.28,103.69c.04,.1,0,.19-.15,.25l-.3,.14c-.14,.06-.22,.04-.27-.06l-1.23-2.74c-.04-.08,0-.16,.13-.21l.35-.16c.12-.06,.21-.03,.26,.07l1.22,2.71Z"></path><path class="cls-3" d="M126.75,99.25s0,.02,0,.02l.47,1.36c.14,.42,.16,.84,.06,1.28-.12,.49-.37,.82-.76,1-.42,.2-.85,.18-1.28-.05-.37-.19-.69-.5-.95-.93l-.75-1.2s-.02-.03-.02-.04c-.04-.07,0-.14,.08-.19l.36-.22s.03-.02,.06-.03c.1-.05,.18-.03,.22,.04l.77,1.3c.06,.11,.13,.21,.19,.28,.13-.26,.08-.64-.15-1.14l-.25-.56c-.06-.12-.02-.22,.11-.28l.37-.17c.12-.05,.2-.01,.26,.11l.24,.53c.15,.34,.22,.68,.2,1-.02,.36-.15,.68-.38,.94,.22,.16,.44,.2,.66,.09,.23-.1,.35-.31,.37-.64,.02-.25-.02-.51-.11-.78l-.53-1.46c-.04-.1,0-.17,.1-.22,.02,0,.03-.01,.04-.02l.41-.13c.1-.03,.17,0,.21,.09"></path><path class="cls-3" d="M130.94,100.84c.04,.11,0,.18-.11,.22l-.41,.14c-.12,.04-.19,.01-.23-.09l-.66-1.88c-.07-.21-.2-.36-.37-.42-.15-.06-.34-.06-.56,.02-.24,.09-.47,.23-.69,.43-.03,.04-.06,.06-.09,.07-.05,.02-.1,0-.16-.04l-.2-.15s-.06-.04-.07-.07c-.02-.05,0-.1,.06-.17,.23-.27,.59-.49,1.1-.67,.38-.13,.72-.15,1.02-.05,.33,.12,.56,.36,.69,.73l.68,1.92Zm-1.7,.6c.04,.11-.02,.19-.17,.24l-.32,.11c-.14,.05-.23,.02-.26-.09l-.5-1.42c-.03-.09,.02-.15,.14-.2l.37-.13c.13-.05,.21-.01,.24,.09l.49,1.4Z"></path><path class="cls-3" d="M135.82,99.97c.02,.12-.04,.19-.16,.21l-.35,.07s-.02,0-.03,0c-.15,.02-.23-.02-.25-.12l-.38-2.11c-.04-.19-.12-.33-.25-.42-.13-.09-.29-.12-.49-.09-.08,.01-.16,.03-.24,.07l.22,1.83c.04,.36,0,.63-.16,.83-.13,.17-.38,.32-.74,.45-.03,0-.05,.01-.06,.02-.07,0-.12-.02-.16-.08l-.11-.2s-.03-.06-.04-.09c0-.07,.03-.13,.12-.16,.14-.06,.24-.13,.3-.2,.08-.09,.1-.21,.09-.36l-.21-1.75c-.09,.05-.15,.07-.17,.07-.05,0-.09-.01-.13-.05l-.2-.2s-.05-.08-.06-.11c0-.05,.01-.1,.06-.13,.36-.23,.81-.39,1.36-.47l.12-.02c.41-.06,.75-.01,1.01,.14,.29,.16,.46,.44,.54,.84l.36,2s0,0,0,.02"></path><path class="cls-3" d="M138.97,96.82s0,.02,0,.04l-.15,.91c-.04,.22-.11,.43-.22,.63-.09,.16-.19,.28-.28,.35l.56,.73c.14,.18,.21,.31,.21,.38,0,.05-.03,.09-.11,.11l-.44,.13s-.07,.02-.1,.02c-.05,0-.08-.01-.11-.04l-1.07-1.47s-.04,.13-.07,.26c0,.04-.02,.16-.05,.38l-.08,.79c0,.08-.06,.12-.14,.13-.01,0-.03,0-.04,0l-.48-.02c-.08,0-.12-.04-.13-.12,0,0,0-.02,0-.03l.11-.98c.04-.42,.21-.73,.48-.95l-.68-.92s-.04-.07-.04-.11c0-.06,.03-.11,.1-.14l.41-.17s.06-.02,.08-.02c.05,0,.11,.03,.16,.1l1.03,1.42c.05-.08,.09-.24,.12-.5l.11-.92c0-.09,.07-.14,.16-.14h.02s.51,.04,.51,.04c.09,0,.14,.05,.14,.13"></path><path class="cls-3" d="M143.8,99.85c0,.11-.04,.19-.1,.26-.06,.08-.15,.11-.25,.11l-2.16-.16c-.11,0-.19-.05-.24-.12-.06-.07-.08-.16-.07-.27v-.02s.28-2.33,.28-2.33l-.17-.22s-.03-.06-.03-.09c0-.05,.04-.1,.12-.13,.35-.13,.79-.18,1.31-.14,.94,.07,1.4,.47,1.37,1.19l-.05,1.9s0,0,0,.02m-.79-.25l.06-1.65c0-.22-.06-.38-.18-.49-.1-.09-.27-.14-.51-.16-.11-.01-.23,0-.37,.03l-.25,2.18,1.26,.09Z"></path><path class="cls-3" d="M145.37,98.47c-.02,.11-.08,.18-.19,.22l-.45,.19s-.06,.02-.08,.01c-.1-.01-.13-.08-.12-.21l.21-1.5c.03-.09,.11-.13,.23-.11l.38,.05c.13,.02,.2,.08,.18,.19l-.16,1.15Z"></path><path class="cls-3" d="M149.02,97.99s0,.02-.02,.04l-.38,.84c-.1,.2-.22,.38-.38,.55-.13,.13-.25,.22-.36,.27l.35,.85c.09,.21,.12,.36,.11,.42-.01,.05-.06,.08-.13,.08h-.46s-.07,0-.1,0c-.04,0-.08-.04-.09-.07l-.66-1.7s-.07,.12-.13,.23c-.02,.03-.07,.15-.15,.36l-.28,.74c-.03,.08-.09,.1-.17,.09-.01,0-.02,0-.04-.01l-.46-.15c-.07-.02-.1-.07-.09-.14,0,0,0-.02,.01-.03l.36-.92c.15-.39,.39-.66,.71-.79l-.42-1.06s-.02-.08,0-.12c.01-.06,.06-.1,.14-.11l.44-.06s.06,0,.09,0c.05,.01,.09,.06,.12,.14l.62,1.64c.07-.06,.15-.21,.25-.45l.34-.86c.04-.09,.1-.12,.19-.1h.02s.48,.18,.48,.18c.08,.03,.12,.08,.11,.16"></path><path class="cls-3" d="M150.15,99.61c-.03,.1-.11,.17-.22,.19l-.48,.11s-.06,0-.08,0c-.1-.03-.12-.1-.08-.23l.45-1.45c.04-.08,.12-.11,.24-.07l.37,.12c.13,.04,.18,.12,.15,.22l-.35,1.11Z"></path><path class="cls-3" d="M153.77,99.76s-.02,.03-.03,.04l-.59,.79c-.26,.34-.59,.55-.97,.61,.03,.1,.07,.21,.15,.33,.06,.1,.12,.21,.18,.31,.07,.12,.11,.2,.11,.22,.02,.06,0,.12-.03,.2l-.04,.09-.05,.11c-.05,.12-.14,.16-.25,.11l-2.1-.91c-.08-.03-.1-.1-.05-.2l.1-.23c.04-.1,.11-.13,.19-.09l1.3,.56c-.09-.17-.16-.3-.2-.39-.07-.15-.12-.28-.16-.41-.14-.48-.19-1.02-.16-1.61l.03-.51s0-.06,.02-.08c.03-.06,.09-.08,.18-.06l.41,.1s.04,.01,.07,.02c.1,.04,.14,.12,.13,.21-.04,.38-.06,.66-.06,.83-.01,.33,0,.61,.04,.83,.07-.02,.18-.09,.31-.22,.1-.1,.19-.21,.25-.3l.5-.72c.05-.07,.12-.08,.21-.04,.02,0,.04,.02,.05,.03l.37,.21c.09,.05,.13,.11,.1,.19"></path><path class="cls-3" d="M153.72,103.16c-.06,.1-.15,.1-.29,.02l-.29-.17c-.13-.07-.16-.16-.1-.26l1.52-2.59c.05-.08,.13-.09,.25-.02l.33,.2c.12,.07,.15,.15,.09,.25l-1.51,2.57Z"></path><path class="cls-3" d="M157.16,104.54c-.23,.28-.5,.43-.81,.45-.3,.02-.59-.09-.87-.33l-.03-.02c-.09-.07-.17-.16-.23-.26-.06-.09-.07-.15-.04-.19,0,0,.02-.02,.03-.02l.21-.14c.07-.04,.13-.04,.19,0,.02,.01,.04,.04,.07,.08,.03,.05,.07,.09,.11,.12,.12,.1,.26,.12,.39,.07,.12-.04,.23-.12,.34-.25,.03-.03,.05-.06,.06-.08l.65-.96c.18-.26,.16-.48-.05-.66-.11-.09-.25-.15-.4-.17l-2,1.74c-.06,.05-.13,.04-.21-.02-.01-.01-.03-.02-.04-.03l-.26-.27c-.09-.08-.11-.15-.05-.22,0,0,.01-.01,.02-.02l1.67-1.46c.05-.04,.09-.08,.12-.12,.1-.12,.1-.26,.02-.42-.05-.09-.05-.15-.02-.2,.02-.02,.04-.03,.07-.05l.25-.13c.06-.03,.12-.04,.16,0,.02,.02,.05,.06,.09,.12,.09,.14,.16,.3,.21,.49,.34,.04,.64,.17,.89,.39,.25,.21,.38,.45,.4,.72,.02,.26-.06,.53-.25,.8l-.59,.89s-.06,.09-.09,.12"></path><path class="cls-3" d="M106.67,29.07c.02,.21-.09,.33-.34,.36l-.67,.1s-.04,0-.05,0c-.28,.02-.43-.05-.45-.22l-.49-3.73c-.04-.34-.18-.59-.43-.75-.24-.16-.55-.23-.92-.2-.16,.01-.32,.05-.48,.1l.21,3.24c.04,.63-.1,1.11-.41,1.44-.27,.29-.76,.53-1.46,.72-.05,.01-.09,.02-.12,.03-.13,.01-.23-.04-.29-.15l-.19-.36c-.04-.06-.05-.12-.05-.15-.01-.12,.07-.22,.25-.28,.28-.09,.48-.2,.6-.32,.16-.15,.23-.36,.21-.63l-.2-3.1c-.17,.07-.28,.11-.32,.12-.09,0-.18-.03-.25-.11l-.35-.37c-.06-.07-.1-.14-.11-.2,0-.1,.04-.18,.13-.23,.71-.38,1.59-.62,2.64-.71l.23-.02c.79-.07,1.43,.04,1.91,.32,.53,.31,.84,.82,.93,1.52l.46,3.54s0,.02,0,.04"></path><path class="cls-3" d="M112.79,24.32c0,.17-.41,.26-1.23,.28v4.59c.01,.13-.11,.2-.35,.2h-.88c-.19,0-.29-.07-.29-.21v-4.57c-1.35,0-2.23-.03-2.63-.11-.2-.04-.29-.1-.29-.18,0-.01,0-.03,0-.04l.14-.6c.03-.13,.14-.2,.34-.2h.04c.61,.09,1.49,.14,2.66,.13,.85,0,1.54-.04,2.06-.1,.05,0,.08,0,.09,0,.14,0,.22,.06,.24,.18l.11,.65Z"></path><path class="cls-3" d="M118.64,24.68c0,.06-.02,.14-.04,.22l-.65,2.47c-.42,1.59-1.57,2.32-3.47,2.18-.17-.01-.27-.1-.28-.25l-.06-.49s0-.06,0-.07c.02-.17,.12-.25,.32-.24,.48,.02,.89-.06,1.23-.24,.37-.2,.61-.51,.71-.92l.59-2.44c0-.08-.03-.12-.12-.13l-2.81-.27c-.13-.01-.2-.1-.2-.26v-1.89s0-.07,0-.1c.01-.13,.11-.19,.28-.19l.87-.02s.05,0,.08,0c.2,.02,.29,.1,.29,.24l-.02,1.19c0,.08,.05,.13,.14,.14l2.31,.22c.6,.06,.88,.34,.83,.83"></path><path class="cls-3" d="M120.45,30.02c-.04,.19-.21,.26-.51,.2l-.63-.13c-.27-.05-.39-.18-.35-.37l1.06-5.18c.03-.16,.18-.22,.43-.16l.72,.15c.26,.05,.36,.17,.32,.37l-1.05,5.13Z"></path><path class="cls-3" d="M122.6,32.1c-.05,.21-.21,.28-.47,.21l-.67-.16c-.25-.06-.35-.19-.3-.4l.96-4.04c.04-.18,.19-.24,.44-.18l.72,.17c.24,.06,.33,.17,.29,.34l-.96,4.05Zm4.83-4.07c-.08,.31-.21,.65-.39,1.01-.34,.66-.77,1.19-1.29,1.59-.64,.5-1.27,.67-1.9,.52-.14-.03-.27-.08-.41-.15-.16-.08-.22-.19-.19-.33,0-.03,.02-.07,.04-.12l.15-.32c.06-.14,.14-.19,.24-.17,.02,0,.04,0,.06,.01l.06,.02c.34,.08,.7-.08,1.08-.49,.27-.29,.51-.65,.71-1.08,.15-.33,.25-.59,.3-.79,.19-.79-.2-1.29-1.17-1.53h-.03c-.58-.14-1.12-.18-1.63-.11-.11,.02-.19,.02-.24,0-.08-.02-.14-.07-.18-.14l-.27-.5c-.04-.05-.05-.1-.04-.14,.05-.21,.5-.3,1.34-.26,.5,.02,.99,.09,1.46,.2l.17,.04c1.75,.41,2.46,1.33,2.12,2.73"></path><path class="cls-3" d="M128.83,32.21c-.06,.19-.24,.23-.53,.13l-.61-.21c-.26-.09-.36-.23-.3-.41l1.71-5c.05-.16,.2-.19,.45-.11l.7,.24c.24,.08,.34,.22,.27,.41l-1.69,4.95Z"></path><path class="cls-3" d="M137.81,30.31s-.01,.03-.02,.04l-1.24,2.22c-.38,.68-.93,1.19-1.65,1.55-.82,.41-1.61,.45-2.36,.13-.82-.35-1.36-.95-1.61-1.8-.22-.72-.21-1.51,.02-2.37l.65-2.4s.02-.05,.03-.08c.06-.13,.18-.17,.37-.11l.76,.24s.07,.02,.11,.04c.2,.08,.28,.2,.23,.35l-.77,2.54c-.07,.22-.12,.41-.13,.58,.53-.12,.98-.63,1.37-1.52l.43-1c.1-.22,.27-.28,.53-.17l.71,.3c.22,.09,.28,.25,.19,.47l-.4,.94c-.26,.6-.63,1.08-1.1,1.44-.52,.39-1.11,.58-1.77,.56,.07,.49,.31,.82,.74,1.01,.43,.18,.88,.1,1.35-.24,.37-.27,.67-.62,.9-1.05l1.29-2.4c.09-.16,.23-.2,.43-.12,.03,.01,.06,.03,.08,.04l.72,.41c.16,.1,.21,.22,.15,.38"></path></svg>