<?xml version="1.0" encoding="UTF-8"?><svg id="uuid-03ee7a25-0590-4430-9a95-ccac50838f2e" xmlns="http://www.w3.org/2000/svg" viewBox="0 0 232.93 97.1"><rect x="-572.1" y="-42.43" width="1922" height="647" fill="#fff"/><g><g><path d="M142.95,75.29c-2.89-1.63-6.05-2.76-9.32-3.3-.13-.02-.27-.04-.4-.06-7.8-1.17-15.64,.39-22.6,4-3.33,1.73-6.61,3.57-9.95,5.28-2.68,1.37-5.44,2.69-8.38,3.4-4.18,1.01-9.59,.28-11.79-3.94-2.01-3.86,2.06-6.66,5.2-7.93,0,0-3.69-4.01-8.94,1.37-2.39,2.45-2.86,6.14-1.68,9.26,.29,.76,.66,1.47,1.1,2.1,1.1,1.55,2.63,2.81,4.34,3.64,5.49,2.66,12.74,1.09,18.04-1.31,3.72-1.68,6.99-4.14,10.54-6.13,6.08-3.41,12.62-6.6,19.78-6.63,5.09-.02,10.1,1.57,14.49,4.08,2.49,1.43,6.94,5.09,6.94,5.09,0,0,.62-4.45-7.36-8.93Z" fill="#512d0d"/><path d="M231.57,54.38c-3.86,2.21-8.24,4.2-12.24,1.19-.23-.17-.46-.35-.69-.53,1.98-3.13,3.75-6.49,3.85-10.21,.08-2.93-1.01-5.69-3.79-6.94,.69,2.19-2.18,8.38-2.64,9.28-.69,1.32-1.42,2.63-2.18,3.91-.96-.81-1.92-1.61-2.91-2.38-3.42-2.64-8.46-3.88-12.69-2.98-1.37,.29-2.69,.8-3.88,1.54-.34,.21-1.09,.7-1.49,1.03,3.73-.59,8.86-.42,12.67,1.66,2.19,1.19,4.06,2.89,5.76,4.69,.07,.07,.14,.15,.2,.22-2.16,3.37-4.46,6.67-6.69,10l-1.74,2.62c-2.88,4.42-5.56,8.95-7.59,13.84-.06-.02-.14-.02-.26,.03-.87,.37-1.74,.87-2.49,1.24-1.59,.78-3.29,1.25-5.03,1.5-2.07,.3-4.38,.49-6.09-.97-1.53-1.31-2.18-3.42-2.11-5.39,.08-1.97,.67-3.82,1.6-5.51,1.47,1.64,4.15,3.5,8.56,2.95,4.5-.57,9.31-3.15,11.11-7.53,.86-2.09,.76-4.52-.81-6.25-3.35-3.7-9.73-3.58-14.01-1.87-1.91,.76-3.67,1.88-5.17,3.29-2.08,1.97-3.64,4.43-4.83,7.02-.16,.35-.32,.71-.47,1.08-2.46,2.98-5.24,5.83-6.54,5.36-2.18-.79,.41-6.72,3.26-12.72,3.4-6.12,7.04-12.02,11.26-17.65,1.38-1.85,2.8-3.66,4.24-5.47l1.6-1.99c1.19-1.46,2.41-2.91,3.66-4.33,1.7-1.93,3.47-3.84,5.46-5.49,1.16-.96,2.92-2.45,4.57-2.14,1.51,.28,1.74,2.06,1.27,3.28-1.15,2.99,1.97,1.94,2.13-1.08,.16-3.01-1.39-5.79-4.65-5.81-3.03-.02-5.83,1.85-8.19,3.56-.07,.05-.13,.1-.2,.14-4.01,2.93-7.4,6.78-10.51,10.7l-1.69,2.16s-.08,.1-.11,.15c-1.8,2.32-3.56,4.67-5.26,7.07l-1.61,2.32c-1.44,2.12-2.82,4.28-4.13,6.48-.16,.1-.25,.17-.27,.19-.92,1.21-1.87,2.4-2.73,3.67-1.74,2.57-3.51,5.09-5.38,7.57-1.32,1.75-4.37,4.96-5.85,1.48-.67-1.58-.27-3.48,.25-5.05,.98-2.97,2.71-6.16,5.17-8.15,1.86-1.5,3.93-1.78,6.19-1.13,.87,.25,1.18-.91,1.3-1.53,.26-1.43,.44-3.9-1.21-4.55-1.43-.57-3.17-.04-4.61,.26-3.73,.77-6.87,2.64-9.19,5.68-1.7,2.23-2.94,4.85-3.51,7.58-.59,.38-1.15,.79-1.66,1.12-1.48,.96-3.11,1.63-4.82,2.09-2.02,.54-4.3,1-6.16-.23-1.68-1.11-2.58-3.14-2.74-5.1-.16-1.97,.21-3.88,.93-5.66,1.65,1.45,4.53,2.99,8.85,1.9,4.4-1.1,8.86-4.24,10.14-8.8,.61-2.17,.21-4.58-1.54-6.11-3.77-3.28-10.09-2.4-14.13-.19-1.8,.98-3.42,2.31-4.74,3.88-1.83,2.2-3.09,4.83-3.96,7.55-.41,1.28-.78,2.67-1,4.1l-.1,2.15c-.35,.41-.7,.81-1.06,1.19-.99,1.06-3.46,4.05-5.16,2.84-1.31-.93-1.14-3.46-1.08-4.84,.08-2.05,.49-4.06,.85-6.07,1.44-7.98,3.2-15.79,5.8-23.48,.74-2.18,1.52-4.35,2.32-6.51,4.86-1.5,9.43-4.5,12.28-8.6,1.69-2.43,2.6-5.46,1.81-8.38-.78-2.91-3.13-5.06-6.23-4.07-2.88,.92-4.96,3.58-6.67,5.94-.05,.07-.1,.13-.14,.2-2.9,4.04-4.91,8.75-6.66,13.44-1.04-.04-2.09-.17-3.11-.4-3.82-.86-7.54-2.15-11.34-3.1-3.91-.99-7.85-1.86-11.82-2.53-5.83-.98-11.75-1.27-17.54,.21-6.96,1.77-13.28,6.43-17.86,11.89-.67,.8-1.3,1.62-1.88,2.48-.77,1.13-1.45,2.33-2,3.58-.39,.89-.79,1.85-1.05,2.82-.08,.3-.56,1.77-.24,2.01,.47,.35,1.84-1.89,2-2.13,1.87-2.7,3.94-5.32,6.34-7.57,1.31-1.24,2.72-2.37,4.25-3.35,6.21-4.01,13.46-5.5,20.77-5.36,4.15,.08,8.29,.37,12.4,.95,6.77,.94,13.27,3.31,20.14,3.09-.02,.06-.04,.12-.06,.18-.99,2.77-1.93,5.55-2.79,8.35-1.45,1.96-3.58,4.75-6.28,8.02-.76,.92-1.61,1.76-2.55,2.5-.67-4.77-2.86-9.48-7.99-10.11-4.51-.55-9.88,2.64-9.51,7.67,.07,1.01,.33,1.91,.74,2.71-2.15,3.61-2.95,7.65-2.13,12.06,.06,.34,.14,.67,.22,1.01-.14,.67-.29,1.34-.48,2.02-.68,2.5-2.54,6.69-5.76,6.57-2.74-.11-4.88-3.49-5.94-5.73-1.13-2.41-1.57-5.11-1.88-7.73-.34-2.89-.46-5.85-.02-8.74,.22-1.42,.59-2.81,1.16-4.13,.44-1.01,.94-2.18,1.93-2.77,1.06-.63,2.27-.22,2.99,.71,1.52,1.96,.44,4.7-.63,6.6-.37,.67-.88,1.24-1.33,1.87-.22,.31-.96,1.25-.53,1.62,.33,.28,.96-.35,1.17-.54,2.45-2.2,4.47-4.93,4.1-8.38-.21-2.01-1.04-4.09-2.69-5.33-2.32-1.74-5.49-.97-7.55,.8-1.95,1.66-3.16,4.05-3.95,6.44-.63,1.89-1,3.81-1.16,5.74-1,2.45-2.25,4.77-3.77,6.98-2.54-4.5-6.75-8.26-12.24-7.34-3.14,.53-5.27,2.99-5.13,6.22,.07,1.77,1.02,3.65,2.32,5.16-.24,1.12-.34,2.23-.36,3.14-.08,3.27,.85,6.66,2.22,9.38,.28,.55,.59,1.07,.94,1.57,.06,2.06,.08,4.12,.12,6.18,.05,2.49,.25,5.16-.84,7.48-.89,1.9-2.05-.76-2.38-1.62-.61-1.59-1.06-3.26-1.42-4.93-.75-3.5-1.12-7.09-2.14-10.52-.97-3.25-3.14-9.15-7.58-8.1-3.84,.91-4.06,9.72-3.55,17.13-.28-.6-.55-1.2-.82-1.81-2.39-5.37-4.7-10.78-7.02-16.19,1.43-2.74,2.19-5.93,2.19-5.93,6.55-23.16-6.25-21.26-6.25-21.26-1.57,.29-3.07,.96-4.18,2.13-2.75,2.89-2.6,7.55-2.1,11.22,.41,3.03,1.18,6,2.14,8.9,1.36,4.1,2.92,8.14,4.54,12.15,.05,1.09,.1,2.19,.12,3.28,.12,5.07,.3,10.31-1.12,15.24-1.2,4.15-4.76,8.18-9.17,4.96-4.08-2.98-6.2-8.42-7.84-13.02-1.85-5.21-2.88-10.69-2.58-16.22,.11-2.05,.33-7.47,3.43-7.26,.09,0,.17,.02,.26,.03,1.53,.27,1.86,2.29,1.9,3.54,.08,2.26-.58,4.39-1.07,6.57-.33,1.45,.18,1.71,1.4,.7,2.8-2.31,3.78-8.17,2.11-11.37-2.22-4.26-6.1-4.75-9.5-2.96C.23,50.33-.5,59.61,.24,65.45c.37,2.95,1.25,5.83,2.27,8.62,2.73,7.48,6.49,16.74,15.06,18.9,2.89,.73,6.39,.61,8.57-1.68,1.35-1.42,2.12-3.31,2.63-5.17,1.63-5.99,.97-12.48,.23-18.55,0,0-.13-1.07-.31-2.56,1.28,3.14,2.58,6.26,3.84,9.4,1.2,3,2.33,6.03,3.73,8.94,.48,.99,.99,1.97,1.55,2.92,.7,1.19,1.59,1.7,2.97,1.38,1.19-.27,3.57-1.43,3.39-2.94-.14-1.18-1.15-3.09-1.66-4.14-.52-1.07-.88-2.18-1.05-3.36-.35-2.43-.02-4.89,.15-7.31,.03-.44,.06-.89,.08-1.33,.06-1.41,.16-2.83,.36-4.22,.23-1.62,1.01-4.47,2.26-1.58,.66,1.52,1.11,3.15,1.55,4.75,.89,3.16,1.5,6.39,2.34,9.55,.62,2.34,1.42,4.65,2.64,6.75,.93,1.59,2.28,3.43,4.24,3.71,3.62,.52,3.81-4.93,3.9-7.28,.12-3.37-.14-6.76-.54-10.11,1.21,1.28,2.72,2.22,4.54,2.58,2.26,.44,4.72,.05,6.65-1.23,5.29-3.49,3.53-11.66,1.88-16.64-.27-.81-.59-1.63-.97-2.44,.58-.94,1.08-1.94,1.53-2.93,.44-.97,.9-1.98,1.34-3.01,.09,4.35,1.25,8.67,3.16,12.65,1.25,2.6,2.85,5.33,5.41,6.82,2.55,1.49,5.83,1.3,8.2-.49,2.08-1.57,3.07-4.29,3.76-6.7,.22-.77,.45-1.56,.6-2.35,.53,1.38,1.3,2.67,2.42,3.66,.76,.68,1.65,1.21,2.61,1.56,2.84,1.03,6.12,.35,8.4-1.61,3.52-3.03,4.51-8.49,4.89-12.88,.09-1.07,.12-2.26,.06-3.47,2.67-2.15,4.79-5.21,6.53-7.94,.44-.69,.87-1.39,1.29-2.09-1.14,3.95-2.12,7.96-2.85,12.02-.71,3.98-1.23,8.03-.97,12.07,.13,2.04,.3,4.27,1.39,6.06,1.59,2.62,4.74,2.42,7.05,.95,1.53-.97,2.86-2.23,4.06-3.61,.34,1.56,1.03,3,2.26,4.2,2.33,2.26,5.88,2.94,9.02,2.59,3.51-.38,6.9-1.98,9.24-4.59-.13,1.43-.08,2.87,.21,4.3,.13,.66,.14,1.35,.64,2.63,.61,1.55,1.27,3.16,2.89,3.75,1.71,.62,3.71-.03,5.07-1.13,1.28-1.04,2.18-2.43,3.11-3.77,.89-1.27,1.77-2.55,2.66-3.82,.91-1.3,1.81-2.61,2.72-3.91,0,0,0,.01,0,.01-.73,1.14-3.49,5.77-4.03,11.47-.62,6.58,3.79,6.85,3.79,6.85,2.85,.21,5.17-3.23,6.55-5.26,.55-.8,1.03-1.51,1.46-2.17-.18,.5-.34,1-.49,1.51l-.61,3.61c-.09,2.11,.38,4.16,1.79,5.9,2.04,2.52,5.49,3.62,8.64,3.65,3.88,.04,7.8-1.36,10.48-4.16,.08-.08,.16-.17,.23-.26-.06,.16-.13,.32-.19,.48-1.32,3.51-2.67,8.16-.44,11.6,2.48,3.82,7.48,2.67,10.6,.4,2.59-1.88,5.02-4.03,7.06-6.5,.28-.34,.56-.69,.83-1.04l.3-3.65c-2.19,2.94-4.67,5.69-7.49,7.82-1.73,1.3-6.47,4.07-7.57,.64-.75-2.33,.72-5.24,1.78-7.26,2.4-4.57,5.4-8.91,8.1-13.31,2.49-4.06,5.03-8.09,7.63-12.08,.51,.5,1.06,.94,1.69,1.3,2.32,1.32,5.28,1.26,7.76,.45,5.6-1.83,7.84-7.81,7.84-7.81-.44,.29-.9,.56-1.36,.82ZM133.98,13.66c1.02-2.36,2.1-4.73,3.48-6.91,.8-1.27,2.01-3.24,3.67-3.46,1.52-.2,2.3,1.42,2.23,2.72-.17,3.2-2.16,6.64-4.47,8.79-2,1.87-4.43,3.27-7.04,4.11,.68-1.76,1.38-3.52,2.13-5.25ZM28.93,49.83c-1.09-2.48-2.02-5.08-2.55-7.74-.61-3.06-.86-7.33,2.16-9.27,2-1.28,3.48,.52,4.15,2.24,1.02,2.6,.97,5.61,.8,8.34-.33,5.18-1.43,8.8-2.5,11.18-.68-1.58-1.37-3.16-2.06-4.74Zm29.36-.47c-1.23,.43-2.1,1.45-2.72,2.7-.64-1.08-.98-2.31-.83-3.59,.44-3.57,4.86-4.08,7.52-2.84,2.79,1.3,4.92,3.92,6.39,6.61-.16,.21-.31,.41-.47,.61-1.03,1.3-2.16,2.5-3.83,2.91-.83,.2-1.69,.25-2.54,.18,.15-.57,.33-1.14,.52-1.71,.53-1.54,1.11-2.95-.4-4.1-.99-.76-2.43-1.21-3.65-.78Zm13.15,12.07c.22,2.29,.12,5.21-1.92,6.7-3.04,2.21-6.21-.56-7.41-3.37-.92-2.16-1.06-4.4-.75-6.61,2.03,.07,4.04-.52,5.71-1.78,.92-.69,1.71-1.52,2.41-2.43,1.04,2.36,1.71,4.93,1.95,7.49Zm39-15.85c-.06,1.42-.19,2.83-.44,4.23-.52,2.93-1.68,6.69-4.93,7.48,0,0-5.22,1.27-5.77-6.23-.17-2.35,.21-4.19,.8-5.62,2.89,1.27,6.5,1.36,9.26,.31,.37-.14,.73-.31,1.09-.49,0,.11,0,.21-.01,.32Zm-7.93-1.4c-.48-.11-.98-.26-1.47-.46,1.28-1.86,2.77-2.57,2.77-2.57,.9-.43-.1-1.77-.45-2.24-.16-.22-.34-.45-.54-.67-.53-.59-1.19-1.1-1.99-1.17-1.13-.09-2.08,.89-2.75,1.68-.32,.38-.62,.76-.91,1.15-.1-.47-.12-.97-.03-1.51,.4-2.46,2.39-4.69,4.88-5.14,2.56-.47,5.2,.93,6.74,2.93,1.5,1.95,1.78,4.33,1.77,6.71-2.44,1.32-5.27,1.91-8.02,1.29Zm48.71-.72c1.73,.58,.64,2.67-.01,3.68-2.36,3.66-6.9,5.66-11.17,5.68-1.24,0-2.47-.15-3.67-.43,.66-1.27,1.49-2.46,2.43-3.54,2.2-2.55,5.35-3.96,8.49-4.98,1.19-.39,2.68-.83,3.92-.41Zm-3.01-3.62c-7.09,.33-12.46,4.29-15.36,10.62,1.64-6.9,8.2-11.7,15.36-10.62Zm49.48,24.07c1.65,.78,.32,2.73-.45,3.66-2.78,3.35-7.52,4.8-11.76,4.31-1.23-.14-2.43-.44-3.59-.86,.81-1.18,1.77-2.26,2.83-3.22,2.49-2.27,5.79-3.3,9.03-3.93,1.23-.24,2.76-.5,3.94,.06Zm-2.56-3.95c-7.08-.52-12.88,2.78-16.51,8.71,2.45-6.66,9.54-10.63,16.51-8.71Z" fill="#512d0d"/></g><g><path d="M56.92,52.93c-.92,4.5-.75,9.09,.95,13.38-2.86-3.73-3.08-9.25-.95-13.38Z" fill="#f6efd9"/><path d="M83.62,30.58c-4.11,.79-6.35,4.78-8.12,8.2,.68-3.87,3.6-8.71,8.12-8.2Z" fill="#f6efd9"/><path d="M120.92,37.83c-.87,6.32-5.09,20.59,.32,25.47-6.62-3.48-1.96-20-.32-25.47Z" fill="#f6efd9"/><path d="M201.21,73.09c-2.41,5.21-8.41,14.62-5.55,20.45-4.2-5.53,2.34-15.9,5.55-20.45Z" fill="#f6efd9"/><path d="M199.1,46.66c3.69-.87,8.45-.05,10.71,3.26-3.06-2.33-6.98-2.93-10.71-3.26Z" fill="#f6efd9"/><path d="M216.91,58.77c3.55,1.72,7.35,1.89,10.57-.57-2.47,3.58-7.55,3.49-10.57,.57Z" fill="#f6efd9"/><path d="M76.86,81.37c.99,3.94,4.08,6.16,7.77,7.33-4.07,.06-8.05-2.98-7.77-7.33Z" fill="#f6efd9"/><path d="M120.98,73.56c4.99-2.1,11.31-1.9,16.06,.76-5.23-1.48-10.7-1.64-16.06-.76Z" fill="#f6efd9"/><path d="M139.18,1.12c-5.67,4.74-9.33,11.3-11.99,18.08,1.36-7.04,5.6-14.48,11.99-18.08Z" fill="#f6efd9"/><path d="M68.05,22.92c5.53-6.13,14.52-9.85,22.77-8.42-8.37-.1-16.3,3.23-22.77,8.42Z" fill="#f6efd9"/><path d="M100.29,39.05c-2.73,2.6-4.35,5.95-5.47,9.51-.09-3.79,1.92-7.88,5.47-9.51Z" fill="#f6efd9"/><g><path d="M173.06,53.02c-2.8,5.73-11.25,17.98-7.64,24.3-5.21-5.37,4.37-19.61,7.64-24.3Z" fill="#f6efd9"/><path d="M201.86,23.83c-6.86,2.74-12.39,7.83-17.03,13.45,3.49-6.27,9.83-12.02,17.03-13.45Z" fill="#f6efd9"/><path d="M161.6,50.17c-5.09,2.45-8.47,6.75-10.02,12.1,.23-5.66,4.42-10.89,10.02-12.1Z" fill="#f6efd9"/></g><path d="M148.44,39.92c-7.03,0-12.52,4.03-15.66,10.73,1.91-7.38,8.62-12.24,15.66-10.73Z" fill="#f6efd9"/><path d="M195.49,59.96c-7.06-.69-12.95,2.46-16.73,8.3,2.61-6.59,9.8-10.39,16.73-8.3Z" fill="#f6efd9"/><path d="M6.03,48.69c-3.69,3.17-4.06,8.59-4.27,13.14-1-4.47-.34-10.87,4.27-13.14Z" fill="#f6efd9"/><path d="M25.68,32.84c-3.69,2.38-2.67,8.5-2.37,12.25-1.34-3.51-2.38-10.69,2.37-12.25Z" fill="#f6efd9"/><path d="M45.21,59.14c3.45,1.23,4.91,5.49,4.81,8.87-1.07-3.17-2.15-6.65-4.81-8.87Z" fill="#f6efd9"/><path d="M9.24,85.62c3.26,3.4,7.33,6.01,12.16,6.04-4.85,1.28-9.87-1.84-12.16-6.04Z" fill="#f6efd9"/><path d="M32.21,70.12c2.49,4.15,4.52,8.84,5.84,13.49-2.49-4.15-4.52-8.84-5.84-13.49Z" fill="#f6efd9"/><path d="M78.4,59.02c1.9,2.96,4.35,5.58,7.74,6.73-3.8,.04-6.91-3.17-7.74-6.73Z" fill="#f6efd9"/></g></g></svg>